<?xml version="1.0" standalone="no"?>
<!DOCTYPE svg PUBLIC "-//W3C//DTD SVG 20010904//EN"
 "http://www.w3.org/TR/2001/REC-SVG-20010904/DTD/svg10.dtd">
<svg version="1.0" xmlns="http://www.w3.org/2000/svg"
 width="400.000000pt" height="400.000000pt" viewBox="0 0 400.000000 400.000000"
 preserveAspectRatio="xMidYMid meet">
<metadata>
Created by potrace 1.14, written by Peter Selinger 2001-2017
</metadata>
<g transform="translate(0.000000,400.000000) scale(0.100000,-0.100000)"
fill="#000000" stroke="none">
<path d="M600 3504 c-45 -20 -68 -41 -91 -86 -18 -36 -19 -83 -19 -1408 0
-1211 2 -1375 15 -1407 21 -50 42 -72 90 -94 38 -18 102 -19 1410 -19 1308 0
1372 1 1410 19 48 22 69 44 90 94 13 32 15 196 15 1404 0 1306 -1 1370 -19
1408 -22 48 -44 69 -94 90 -32 13 -195 15 -1404 15 -1195 -1 -1372 -3 -1403
-16z"/>
</g>
</svg>
