<svg viewBox="0 0 35 11" fill="none" xmlns="http://www.w3.org/2000/svg">
<path d="M31.9353 10.8949C30.9445 10.8949 30.1861 10.6629 29.6601 10.1989C29.1341 9.73483 28.8711 9.07912 28.8711 8.23173V2.66321C28.8711 1.81582 29.1341 1.16011 29.6601 0.696066C30.1861 0.232022 30.9445 0 31.9353 0C32.9261 0 33.6845 0.232022 34.2105 0.696066C34.7365 1.16011 34.9995 1.81582 34.9995 2.66321V8.23173C34.9995 9.07912 34.7365 9.73483 34.2105 10.1989C33.6845 10.6629 32.9261 10.8949 31.9353 10.8949ZM31.9353 9.38175C32.6325 9.38175 32.9812 9.03372 32.9812 8.33766V2.55729C32.9812 1.86122 32.6325 1.51319 31.9353 1.51319C31.2381 1.51319 30.8894 1.86122 30.8894 2.55729V8.33766C30.8894 9.03372 31.2381 9.38175 31.9353 9.38175Z" fill="#FDFDFD"/>
<path d="M23.2871 0H25.3284V9.33852H28.1898V10.8949H23.2871V0Z" fill="#FDFDFD"/>
<path d="M17.1602 0.000151855L22.1991 0V1.5564L19.2838 1.55655V4.43589H21.0449V5.99229H19.2838V9.33854L22.1991 9.33839V10.8948L17.1602 10.8949V0.000151855Z" fill="#FDFDFD"/>
<path d="M13.1072 10.8949C12.155 10.8949 11.4349 10.668 10.9468 10.214C10.4588 9.74996 10.2148 9.08921 10.2148 8.23173V7.62646H12.0716V8.35279C12.0716 9.03877 12.4109 9.38175 13.0893 9.38175C13.4226 9.38175 13.6725 9.30105 13.8392 9.13965C14.0177 8.96815 14.107 8.69578 14.107 8.32252C14.107 7.87866 13.9879 7.49027 13.7499 7.15737C13.5118 6.81438 13.0714 6.40582 12.4287 5.93169C11.6193 5.32642 11.054 4.78167 10.7326 4.29745C10.4112 3.80314 10.2506 3.24831 10.2506 2.63294C10.2506 1.79565 10.5005 1.15002 11.0004 0.696066C11.5003 0.232022 12.2264 0 13.1786 0C14.1189 0 14.8271 0.232022 15.3032 0.696066C15.7912 1.15002 16.0352 1.80574 16.0352 2.66321V3.10203H14.1784V2.55729C14.1784 2.19412 14.0951 1.93183 13.9284 1.77043C13.7618 1.59893 13.5178 1.51319 13.1964 1.51319C12.5418 1.51319 12.2145 1.85113 12.2145 2.52702C12.2145 2.91036 12.3335 3.26848 12.5715 3.60138C12.8215 3.93428 13.2678 4.3378 13.9106 4.81193C14.7318 5.41721 15.2972 5.967 15.6067 6.46131C15.9161 6.95561 16.0709 7.53567 16.0709 8.20147C16.0709 9.06903 15.815 9.73483 15.3032 10.1989C14.8033 10.6629 14.0713 10.8949 13.1072 10.8949Z" fill="#FDFDFD"/>
<path d="M7.35352 0H9.26013V10.8949H7.35352V0Z" fill="#FDFDFD"/>
<path d="M0 0H3.10112C4.11022 0 4.86704 0.228275 5.37158 0.684825C5.87613 1.14137 6.1284 1.81064 6.1284 2.69261V8.20233C6.1284 9.08431 5.87613 9.75357 5.37158 10.2101C4.86704 10.6667 4.11022 10.8949 3.10112 10.8949H0V0ZM3.0642 9.33852C3.39647 9.33852 3.64874 9.25551 3.82102 9.08949C4.00561 8.92348 4.09791 8.6537 4.09791 8.28016V2.61479C4.09791 2.24125 4.00561 1.97147 3.82102 1.80545C3.64874 1.63943 3.39647 1.55642 3.0642 1.55642H2.0305V9.33852H3.0642Z" fill="#FDFDFD"/>
</svg>
